<?xml version="1.0" encoding="utf-8"?>
<!-- Generator: Adobe Illustrator 25.0.0, SVG Export Plug-In . SVG Version: 6.00 Build 0)  -->
<svg version="1.1" id="Layer_1" xmlns="http://www.w3.org/2000/svg" xmlns:xlink="http://www.w3.org/1999/xlink" x="0px" y="0px"
	 viewBox="0 0 457.9 457.9" style="enable-background:new 0 0 457.9 457.9;" xml:space="preserve">
<style type="text/css">
	.st0{fill:#210062;}
	.st1{fill:#FFFFFF;}
</style>
<g id="Layer_2_1_">
	<g id="Layer_1-2">
		<path class="st0" d="M73.2,0h311.6c40.4,0,73.2,32.8,73.2,73.2v311.6c0,40.4-32.8,73.2-73.2,73.2H73.2C32.8,457.9,0,425.2,0,384.7
			V73.2C0,32.8,32.8,0,73.2,0z"/>
		<polygon class="st1" points="140.5,174.3 229,98 317.4,174.3 346.6,199.4 405.9,199.4 317.4,123.1 229,46.8 140.5,123.1 52,199.4 
			111.4,199.4 		"/>
		<path class="st1" d="M245.8,167.4h-33.7c-9.7,0-17.5,7.8-17.5,17.5l0,0v208.8c0,9.7,7.8,17.5,17.5,17.5h33.7
			c9.7,0,17.5-7.8,17.5-17.5V184.9C263.3,175.2,255.5,167.4,245.8,167.4z M253.9,244.8c0,7.2-5.8,13-13,13H217c-7.2,0-13-5.8-13-13
			v-23.9c0-7.2,5.8-13,13-13l0,0h23.9c7.2,0,13,5.8,13,13l0,0L253.9,244.8z"/>
		<path class="st1" d="M149.2,205.1h-33.7c-9.7,0-17.5,7.8-17.5,17.5c0,0,0,0,0,0v171c0,9.7,7.8,17.5,17.5,17.5c0,0,0,0,0,0h33.7
			c9.7,0,17.5-7.8,17.5-17.5v-171C166.7,212.9,158.9,205.1,149.2,205.1z M157.3,258.8h-49.9v-11.7h49.9V258.8z M157.3,240.9h-49.9
			v-11.7h49.9V240.9z"/>
		<path class="st1" d="M342.4,205.1h-33.7c-9.7,0-17.5,7.8-17.5,17.5v171c0,9.7,7.8,17.5,17.5,17.5h33.7c9.7,0,17.5-7.8,17.5-17.5
			c0,0,0,0,0,0v-171C359.9,212.9,352.1,205.1,342.4,205.1C342.4,205.1,342.4,205.1,342.4,205.1z M350.5,258.8h-49.9v-11.7h49.9
			V258.8z M350.5,240.9h-49.9v-11.7h49.9V240.9z"/>
	</g>
</g>
</svg>
