<?xml version="1.0" encoding="utf-8"?>
<!-- Generator: Adobe Illustrator 25.0.0, SVG Export Plug-In . SVG Version: 6.00 Build 0)  -->
<svg version="1.1" id="Layer_1" xmlns="http://www.w3.org/2000/svg" xmlns:xlink="http://www.w3.org/1999/xlink" x="0px" y="0px"
	 viewBox="0 0 457.1 470.6" style="enable-background:new 0 0 457.1 470.6;" xml:space="preserve">
<style type="text/css">
	.st0{fill:#210062;}
</style>
<g id="Layer_2_1_">
	<g id="Layer_1-2">
		<path class="st0" d="M250.4,77.8h-43.5c-12.5,0-22.6,10.1-22.6,22.6v269.7c0,12.5,10.1,22.6,22.6,22.6h43.5
			c12.5,0,22.6-10.1,22.6-22.6V100.5C272.9,88,262.8,77.8,250.4,77.8L250.4,77.8z M260.8,177.9c0,9.2-7.5,16.7-16.7,16.8h-30.9
			c-9.3,0-16.8-7.5-16.8-16.8l0,0V147c0-9.3,7.5-16.8,16.8-16.8h30.9c9.3,0,16.8,7.5,16.8,16.8L260.8,177.9z"/>
		<path class="st0" d="M125.6,126.7H82.1c-12.5,0-22.6,10.1-22.6,22.6v220.9c0,12.5,10.1,22.6,22.6,22.6h43.5
			c12.5,0,22.6-10.1,22.7-22.6V149.2C148.2,136.8,138.1,126.7,125.6,126.7z M136.1,195.9H71.6v-15.1h64.4V195.9z M136.1,172.9H71.6
			v-15.1h64.4V172.9z"/>
		<path class="st0" d="M375,126.7h-43.5c-12.5,0-22.6,10.1-22.6,22.6l0,0v220.9c0,12.5,10.1,22.6,22.6,22.6l0,0H375
			c12.5,0,22.6-10.1,22.6-22.6l0,0V149.2C397.6,136.8,387.5,126.7,375,126.7L375,126.7z M385.4,195.9H321v-15.1h64.4V195.9z
			 M385.4,172.9H321v-15.1h64.4V172.9z"/>
	</g>
</g>
</svg>
