<svg xmlns="http://www.w3.org/2000/svg" viewBox="0 0 457.92 457.92"><defs><style>.cls-1{fill:#210062;}.cls-2{fill:#fff;}</style></defs><g id="Layer_2" data-name="Layer 2"><g id="Layer_1-2" data-name="Layer 1"><rect class="cls-1" width="457.92" height="457.92" rx="73.18"/><polygon class="cls-2" points="140.48 174.31 228.96 97.98 317.44 174.31 346.56 199.44 405.93 199.44 317.44 123.1 228.96 46.76 140.48 123.1 51.99 199.44 111.36 199.44 140.48 174.31"/><path class="cls-2" d="M245.81,167.36h-33.7a17.52,17.52,0,0,0-17.52,17.52V393.64a17.52,17.52,0,0,0,17.52,17.52h33.7a17.52,17.52,0,0,0,17.52-17.52V184.88A17.52,17.52,0,0,0,245.81,167.36Zm8.08,77.44a13,13,0,0,1-13,13H217a13,13,0,0,1-13-13V220.88a13,13,0,0,1,13-13h23.92a13,13,0,0,1,13,13Z"/><path class="cls-2" d="M149.22,205.1h-33.7A17.51,17.51,0,0,0,98,222.62v171a17.51,17.51,0,0,0,17.52,17.52h33.7a17.52,17.52,0,0,0,17.52-17.52v-171A17.52,17.52,0,0,0,149.22,205.1Zm8.08,53.69H107.43V247.07H157.3Zm0-17.93H107.43V229.14H157.3Z"/><path class="cls-2" d="M342.4,205.1H308.7a17.52,17.52,0,0,0-17.52,17.52v171a17.52,17.52,0,0,0,17.52,17.52h33.7a17.51,17.51,0,0,0,17.52-17.52v-171A17.51,17.51,0,0,0,342.4,205.1Zm8.09,53.69H300.62V247.07h49.87Zm0-17.93H300.62V229.14h49.87Z"/></g></g></svg>