<?xml version="1.0" encoding="utf-8"?>
<!-- Generator: Adobe Illustrator 25.0.0, SVG Export Plug-In . SVG Version: 6.00 Build 0)  -->
<svg version="1.1" id="Layer_1" xmlns="http://www.w3.org/2000/svg" xmlns:xlink="http://www.w3.org/1999/xlink" x="0px" y="0px"
	 viewBox="0 0 457.1 470.6" style="enable-background:new 0 0 457.1 470.6;" xml:space="preserve">
<style type="text/css">
	.st0{fill:#210062;}
</style>
<g id="Layer_2_1_">
	<g id="Layer_1-2">
		<polygon class="st0" points="114.3,164.7 228.5,66.1 342.8,164.7 380.4,197.2 457.1,197.2 342.8,98.6 228.5,0 114.3,98.6 0,197.2 
			76.7,197.2 		"/>
		<path class="st0" d="M250.3,155.7h-43.5c-12.5,0-22.6,10.1-22.6,22.6V448c0,12.5,10.1,22.6,22.6,22.6h43.5
			c12.5,0,22.6-10.1,22.6-22.6V178.4C272.9,165.9,262.8,155.7,250.3,155.7L250.3,155.7z M260.7,255.7c0,9.2-7.5,16.7-16.7,16.8
			h-30.9c-9.3,0-16.8-7.5-16.8-16.8l0,0v-30.9c0-9.3,7.5-16.8,16.8-16.8H244c9.3,0,16.8,7.5,16.8,16.8L260.7,255.7z"/>
		<path class="st0" d="M125.6,204.5H82c-12.5,0-22.6,10.1-22.6,22.6V448c0,12.5,10.1,22.6,22.6,22.6h43.5
			c12.5,0,22.6-10.1,22.7-22.6V227.1C148.2,214.6,138,204.5,125.6,204.5z M136,273.8H71.6v-15.1H136V273.8z M136,250.7H71.6v-15.1
			H136V250.7z"/>
		<path class="st0" d="M375,204.5h-43.5c-12.5,0-22.6,10.1-22.6,22.6l0,0V448c0,12.5,10.1,22.6,22.6,22.6l0,0H375
			c12.5,0,22.6-10.1,22.6-22.6c0,0,0,0,0,0V227.1C397.6,214.6,387.5,204.5,375,204.5C375,204.5,375,204.5,375,204.5z M385.4,273.8
			h-64.4v-15.1h64.4L385.4,273.8z M385.4,250.7h-64.4v-15.1h64.4L385.4,250.7z"/>
	</g>
</g>
</svg>
