<?xml version="1.0" encoding="utf-8"?>
<!-- Generator: Adobe Illustrator 25.0.0, SVG Export Plug-In . SVG Version: 6.00 Build 0)  -->
<svg version="1.1" id="Layer_1" xmlns="http://www.w3.org/2000/svg" xmlns:xlink="http://www.w3.org/1999/xlink" x="0px" y="0px"
	 viewBox="0 0 457.9 457.9" style="enable-background:new 0 0 457.9 457.9;" xml:space="preserve">
<style type="text/css">
	.st0{fill:#210062;}
	.st1{fill:#FFFFFF;}
</style>
<g id="Layer_2_1_">
	<g id="Layer_1-2">
		<path class="st0" d="M73.2,0h311.6C425.2,0,458,32.8,458,73.2v311.6c0,40.4-32.8,73.2-73.2,73.2H73.2C32.8,457.9,0,425.2,0,384.7
			V73.2C0,32.8,32.8,0,73.2,0z"/>
		<g>
			<path class="st1" d="M247.7,93.1h-37.6c-10.8,0-19.5,8.7-19.5,19.5l0,0v232.7c0,10.8,8.7,19.5,19.5,19.5h37.6
				c10.8,0,19.5-8.7,19.5-19.5V112.6C267.2,101.8,258.5,93.1,247.7,93.1z M256.8,179.3c0,8-6.5,14.5-14.5,14.5h-26.6
				c-8,0-14.5-6.5-14.5-14.5v-26.6c0-8,6.5-14.5,14.5-14.5l0,0h26.6c8,0,14.5,6.5,14.5,14.5l0,0V179.3z"/>
			<path class="st1" d="M140.1,135.1h-37.6c-10.8,0-19.5,8.7-19.5,19.5l0,0v190.6c0,10.8,8.7,19.5,19.5,19.5l0,0h37.6
				c10.8,0,19.5-8.7,19.5-19.5V154.6C159.6,143.8,150.9,135.1,140.1,135.1z M149.1,195H93.5v-13h55.6V195z M149.1,175H93.5v-13h55.6
				V175z"/>
			<path class="st1" d="M355.4,135.1h-37.6c-10.8,0-19.5,8.7-19.5,19.5v190.6c0,10.8,8.7,19.5,19.5,19.5h37.6
				c10.8,0,19.5-8.7,19.5-19.5l0,0V154.6C374.9,143.8,366.2,135.1,355.4,135.1L355.4,135.1z M364.4,195h-55.6v-13h55.6V195z
				 M364.4,175h-55.6v-13h55.6V175z"/>
		</g>
	</g>
</g>
</svg>
