<?xml version="1.0" encoding="utf-8"?>
<!-- Generator: Adobe Illustrator 25.0.0, SVG Export Plug-In . SVG Version: 6.00 Build 0)  -->
<svg version="1.1" id="Layer_1" xmlns="http://www.w3.org/2000/svg" xmlns:xlink="http://www.w3.org/1999/xlink" x="0px" y="0px"
	 viewBox="0 0 457.9 457.9" style="enable-background:new 0 0 457.9 457.9;" xml:space="preserve">
<style type="text/css">
	.st0{fill:#FFFFFF;}
	.st1{fill:#210062;}
</style>
<g>
	<path class="st0" d="M73.7,0.7h311.6c40.4,0,73.2,32.8,73.2,73.2v311.6c0,40.4-32.8,73.2-73.2,73.2H73.7
		c-40.4-0.1-73.2-32.8-73.2-73.3V73.8C0.5,33.5,33.3,0.7,73.7,0.7z"/>
	<g>
		<path class="st1" d="M248.6,86.8h-39.3c-11.3,0-20.4,9.1-20.4,20.4l0,0v243.6c0,11.3,9.1,20.4,20.4,20.4h39.3
			c11.3,0,20.4-9.1,20.4-20.4V107.2C269,95.9,259.9,86.8,248.6,86.8z M258.1,177c0,8.4-6.8,15.2-15.2,15.2H215
			c-8.4,0-15.2-6.8-15.2-15.2v-27.9c0-8.4,6.8-15.2,15.2-15.2l0,0h27.9c8.4,0,15.2,6.8,15.2,15.2l0,0V177z"/>
		<path class="st1" d="M135.9,130.7H96.6c-11.3,0-20.4,9.1-20.4,20.4l0,0v199.5c0,11.3,9.1,20.4,20.4,20.4l0,0h39.3
			c11.3,0,20.4-9.1,20.4-20.4V151.1C156.3,139.8,147.2,130.7,135.9,130.7z M145.4,193.4H87.2v-13.6h58.2V193.4z M145.4,172.5H87.2
			v-13.6h58.2V172.5z"/>
		<path class="st1" d="M361.3,130.7H322c-11.3,0-20.4,9.1-20.4,20.4v199.5c0,11.3,9.1,20.4,20.4,20.4h39.3
			c11.3,0,20.4-9.1,20.4-20.4l0,0V151.1C381.7,139.8,372.6,130.7,361.3,130.7L361.3,130.7z M370.7,193.4h-58.2v-13.6h58.2V193.4z
			 M370.7,172.5h-58.2v-13.6h58.2V172.5z"/>
	</g>
</g>
</svg>
