<?xml version="1.0" encoding="utf-8"?>
<!-- Generator: Adobe Illustrator 25.0.0, SVG Export Plug-In . SVG Version: 6.00 Build 0)  -->
<svg version="1.1" id="Layer_1" xmlns="http://www.w3.org/2000/svg" xmlns:xlink="http://www.w3.org/1999/xlink" x="0px" y="0px"
	 viewBox="0 0 457.1 470.6" style="enable-background:new 0 0 457.1 470.6;" xml:space="preserve">
<style type="text/css">
	.st0{stroke:#FFFFFF;stroke-miterlimit:10;}
</style>
<g id="Layer_2_1_">
	<g id="Layer_1-2">
		<path class="st0" d="M250.3,82.9h-43.5c-12.5,0-22.6,10.1-22.6,22.6v269.6c0,12.5,10.1,22.6,22.6,22.6h43.5
			c12.5,0,22.6-10.1,22.6-22.6V105.5C272.9,93,262.8,82.9,250.3,82.9L250.3,82.9z M260.8,182.9c0,9.2-7.5,16.7-16.7,16.8h-30.9
			c-9.3,0-16.8-7.5-16.8-16.8l0,0V152c0-9.3,7.5-16.8,16.8-16.8H244c9.3,0,16.8,7.5,16.8,16.8L260.8,182.9z"/>
		<path class="st0" d="M125.6,131.6H82c-12.5,0-22.6,10.1-22.6,22.6v220.9c0,12.5,10.1,22.6,22.6,22.6h43.5
			c12.5,0,22.6-10.1,22.7-22.6V154.2C148.2,141.7,138.1,131.6,125.6,131.6z M136,200.9H71.6v-15.1H136V200.9z M136,177.8H71.6v-15.1
			H136V177.8z"/>
		<path class="st0" d="M375,131.6h-43.5c-12.5,0-22.6,10.1-22.6,22.6l0,0v220.9c0,12.5,10.1,22.6,22.6,22.6l0,0H375
			c12.5,0,22.6-10.1,22.6-22.6c0,0,0,0,0,0V154.2C397.7,141.7,387.5,131.6,375,131.6C375,131.6,375,131.6,375,131.6z M385.5,200.9
			h-64.4v-15.1h64.4L385.5,200.9z M385.5,177.8h-64.4v-15.1h64.4L385.5,177.8z"/>
	</g>
</g>
</svg>
