<svg xmlns="http://www.w3.org/2000/svg" viewBox="0 0 457.06 470.58"><defs><style>.cls-1{fill:#fff;}</style></defs><g id="Layer_2" data-name="Layer 2"><g id="Layer_1-2" data-name="Layer 1"><polygon class="cls-1" points="114.27 164.72 228.53 66.14 342.79 164.72 380.4 197.16 457.06 197.16 342.79 98.58 228.53 0 114.27 98.58 0 197.16 76.66 197.16 114.27 164.72"/><path class="cls-1" d="M250.29,155.74H206.77a22.62,22.62,0,0,0-22.62,22.62V448a22.63,22.63,0,0,0,22.62,22.63h43.52A22.63,22.63,0,0,0,272.91,448V178.36A22.62,22.62,0,0,0,250.29,155.74Zm10.44,100A16.75,16.75,0,0,1,244,272.5h-30.9a16.75,16.75,0,0,1-16.75-16.75v-30.9a16.75,16.75,0,0,1,16.75-16.75H244a16.75,16.75,0,0,1,16.75,16.75Z"/><path class="cls-1" d="M125.55,204.47H82A22.63,22.63,0,0,0,59.41,227.1V448A22.63,22.63,0,0,0,82,470.58h43.51A22.63,22.63,0,0,0,148.18,448V227.1A22.63,22.63,0,0,0,125.55,204.47ZM136,273.81H71.59V258.67H136Zm0-23.15H71.59V235.52H136Z"/><path class="cls-1" d="M375,204.47H331.51a22.63,22.63,0,0,0-22.63,22.63V448a22.63,22.63,0,0,0,22.63,22.63H375A22.63,22.63,0,0,0,397.65,448V227.1A22.63,22.63,0,0,0,375,204.47Zm10.44,69.34H321.07V258.67h64.39Zm0-23.15H321.07V235.52h64.39Z"/></g></g></svg>